<svg xmlns="http://www.w3.org/2000/svg" width="1505.3" height="1053.9"><g stroke="#000"><g fill="#ffe07f"><path d="M-16 639.1c-55.8 62.3-99.7 135.5-128.1 215.9 37.5-22.3 81.3-35.1 128.1-35.1s90.6 12.8 128.1 35.1C83.7 774.5 39.8 701.4-16 639.1zm512.4 0c-55.8 62.3-99.7 135.5-128.1 215.9 37.5-22.3 81.3-35.1 128.1-35.1S587 832.7 624.5 855c-28.4-80.5-72.3-153.6-128.1-215.9zm512.4 0C953 701.4 909.1 774.6 880.7 855c37.5-22.3 81.3-35.1 128.1-35.1s90.6 12.8 128.1 35.1c-28.4-80.5-72.3-153.6-128.1-215.9zm512.5 0c-55.8 62.3-99.7 135.5-128.1 215.9 37.5-22.3 81.3-35.1 128.1-35.1s90.6 12.8 128.1 35.1c-28.4-80.5-72.3-153.6-128.1-215.9zM240.2 207.2C128.6 331.8 40.9 478.2-16 639.1c75-44.6 162.6-70.2 256.2-70.2s181.2 25.6 256.2 70.2c-56.9-160.9-144.7-307.2-256.2-431.9zm1024.9 0c-111.5 124.6-199.3 270.9-256.2 431.8 75-44.6 162.6-70.2 256.2-70.2s181.2 25.6 256.2 70.2c-56.9-160.9-144.7-307.2-256.2-431.9zM-208.2 963c-13.9 15.6-24.9 33.9-32 54 9.4-5.6 20.3-8.8 32-8.8s22.7 3.2 32 8.8c-7.1-20.1-18.1-38.4-32-54zm128.1 0c-13.9 15.6-24.9 33.9-32 54 9.4-5.6 20.3-8.8 32-8.8s22.7 3.2 32 8.8c-7.1-20.1-18.1-38.4-32-54zM48 963c-13.9 15.6-24.9 33.9-32 54 9.4-5.6 20.3-8.8 32-8.8s22.7 3.2 32 8.8c-7.1-20.1-18.1-38.4-32-54zm128.1 0c-13.9 15.6-24.9 33.9-32 54 9.4-5.6 20.3-8.8 32-8.8s22.7 3.2 32 8.8c-7.1-20.1-18.1-38.4-32-54z"/><path d="M-144.1 855c-27.9 31.2-49.8 67.7-64.1 108 18.8-11.1 40.7-17.5 64.1-17.5s45.3 6.4 64.1 17.6c-14.2-40.2-36.2-76.8-64.1-108zm256.2 0C84.2 886.2 62.3 922.7 48 963c18.8-11.1 40.7-17.5 64.1-17.5s45.3 6.4 64.1 17.6c-14.2-40.2-36.2-76.8-64.1-108zm192.1 108c-13.9 15.6-24.9 33.9-32 54 9.4-5.6 20.3-8.8 32-8.8s22.7 3.2 32 8.8c-7.1-20.1-18.1-38.4-32-54zm128.2 0c-13.9 15.6-24.9 33.9-32 54 9.4-5.6 20.3-8.8 32-8.8s22.7 3.2 32 8.8c-7.1-20.1-18.1-38.4-32-54z"/><path d="M368.3 855c-27.9 31.2-49.8 67.7-64.1 108 18.8-11.1 40.7-17.5 64.1-17.5s45.3 6.4 64.1 17.6c-14.2-40.2-36.2-76.8-64.1-108zm192.2 108c-13.9 15.6-24.9 33.9-32 54 9.4-5.6 20.3-8.8 32-8.8s22.7 3.2 32 8.8c-7.1-20.1-18.1-38.4-32-54zm128.1 0c-13.9 15.6-24.9 33.9-32 54 9.4-5.6 20.3-8.8 32-8.8s22.7 3.2 32 8.8c-7.1-20.1-18.1-38.4-32-54z"/><path d="M624.5 855c-27.9 31.2-49.8 67.7-64.1 108 18.8-11.1 40.7-17.5 64.1-17.5s45.3 6.4 64.1 17.6c-14.2-40.2-36.2-76.8-64.1-108zm192.2 108c-13.9 15.6-24.9 33.9-32 54 9.4-5.6 20.3-8.8 32-8.8s22.7 3.2 32 8.8c-7.1-20.1-18.1-38.4-32-54zm128.1 0c-13.9 15.6-24.9 33.9-32 54 9.4-5.6 20.3-8.8 32-8.8s22.7 3.2 32 8.8c-7.1-20.1-18.1-38.4-32-54z"/><path d="M880.7 855c-27.9 31.2-49.8 67.7-64.1 108 18.8-11.1 40.7-17.5 64.1-17.5s45.3 6.4 64.1 17.6c-14.2-40.2-36.2-76.8-64.1-108zm192.2 108c-13.9 15.6-24.9 33.9-32 54 9.4-5.6 20.3-8.8 32-8.8s22.7 3.2 32 8.8c-7.1-20.1-18.1-38.4-32-54zm128.1 0c-13.9 15.6-24.9 33.9-32 54 9.4-5.6 20.3-8.8 32-8.8s22.7 3.2 32 8.8c-7.1-20.1-18.1-38.4-32-54z"/><path d="M1137 855c-27.9 31.2-49.8 67.7-64.1 108 18.8-11.1 40.7-17.5 64.1-17.5s45.3 6.4 64.1 17.6c-14.2-40.2-36.2-76.8-64.1-108zM-272.2-656.5c-223.1 249.3-398.7 541.9-512.5 863.7 150.1-89.1 325.3-140.4 512.4-140.4s362.5 51.3 512.5 140.4C126.4-114.6-49.2-407.3-272.2-656.5zm2049.7 0c-223.1 249.2-398.6 541.8-512.4 863.7 150-89.1 325.2-140.4 512.4-140.4s362.4 51.3 512.5 140.4c-113.8-321.8-289.4-614.5-512.4-863.7zM1329.1 963c-13.9 15.6-24.9 33.9-32 54 9.4-5.6 20.3-8.8 32-8.8s22.7 3.2 32 8.8c-7.1-20.1-18.1-38.4-32-54zm128.1 0c-13.9 15.6-24.9 33.9-32 54 9.4-5.6 20.3-8.8 32-8.8s22.7 3.2 32 8.8c-7.1-20.1-18.1-38.4-32-54z"/><path d="M1393.2 855c-27.9 31.2-49.8 67.7-64.1 108 18.8-11.1 40.7-17.5 64.1-17.5s45.3 6.4 64.1 17.6c-14.2-40.2-36.2-76.8-64.1-108zm192.1 108c-13.9 15.6-24.9 33.9-32 54 9.4-5.6 20.3-8.8 32-8.8s22.7 3.2 32 8.8c-7.1-20.1-18.1-38.4-32-54zm128.2 0c-13.9 15.6-24.9 33.9-32 54 9.4-5.6 20.3-8.8 32-8.8s22.7 3.2 32 8.8c-7.1-20.1-18.1-38.4-32-54z"/><path d="M1649.4 855c-27.9 31.2-49.8 67.7-64.1 108 18.8-11.1 40.7-17.5 64.1-17.5s45.3 6.4 64.1 17.6c-14.2-40.2-36.2-76.8-64.1-108zm-1905.6 188.9c-3.5 3.9-6.2 8.5-8 13.5 2.3-1.4 5.1-2.2 8-2.2s5.7.8 8 2.2c-1.8-5-4.5-9.6-8-13.5zm32 0c-3.5 3.9-6.2 8.5-8 13.5 2.3-1.4 5.1-2.2 8-2.2s5.7.8 8 2.2c-1.8-5-4.5-9.6-8-13.5zm32 0c-3.5 3.9-6.2 8.5-8 13.5 2.3-1.4 5.1-2.2 8-2.2s5.7.8 8 2.2c-1.8-5-4.5-9.6-8-13.5zm32.1 0c-3.5 3.9-6.2 8.5-8 13.5 2.3-1.4 5.1-2.2 8-2.2s5.7.8 8 2.2c-1.8-5-4.5-9.6-8-13.5zm-80.1-27c-7 7.8-12.5 16.9-16 27 4.7-2.8 10.2-4.4 16-4.4s11.3 1.6 16 4.4c-3.6-10.1-9-19.2-16-27zm64 0c-7 7.8-12.5 16.9-16 27 4.7-2.8 10.2-4.4 16-4.4s11.3 1.6 16 4.4c-3.6-10.1-9-19.2-16-27zm48.1 27c-3.5 3.9-6.2 8.5-8 13.5 2.3-1.4 5.1-2.2 8-2.2s5.7.8 8 2.2c-1.8-5-4.5-9.6-8-13.5zm32 0c-3.5 3.9-6.2 8.5-8 13.5 2.3-1.4 5.1-2.2 8-2.2s5.7.8 8 2.2c-1.8-5-4.5-9.6-8-13.5zm-16-27c-7 7.8-12.5 16.9-16 27 4.7-2.8 10.2-4.4 16-4.4s11.3 1.6 16 4.4c-3.6-10.1-9-19.2-16-27zm48 27c-3.5 3.9-6.2 8.5-8 13.5 2.3-1.4 5.1-2.2 8-2.2s5.7.8 8 2.2c-1.8-5-4.5-9.6-8-13.5zm32.1 0c-3.5 3.9-6.2 8.5-8 13.5 2.3-1.4 5.1-2.2 8-2.2s5.7.8 8 2.2c-1.8-5-4.5-9.6-8-13.5zm-16.1-27c-7 7.8-12.5 16.9-16 27 4.7-2.8 10.2-4.4 16-4.4s11.3 1.6 16 4.4c-3.6-10.1-9-19.2-16-27zm48.1 27c-3.5 3.9-6.2 8.5-8 13.5 2.3-1.4 5.1-2.2 8-2.2s5.7.8 8 2.2c-1.8-5-4.5-9.6-8-13.5zm32 0c-3.5 3.9-6.2 8.5-8 13.5 2.3-1.4 5.1-2.2 8-2.2s5.7.8 8 2.2c-1.8-5-4.5-9.6-8-13.5zm-16-27c-7 7.8-12.5 16.9-16 27 4.7-2.8 10.2-4.4 16-4.4s11.3 1.6 16 4.4c-3.6-10.1-9-19.2-16-27zm48 27c-3.5 3.9-6.2 8.5-8 13.5 2.3-1.4 5.1-2.2 8-2.2s5.7.8 8 2.2c-1.8-5-4.5-9.6-8-13.5zm32.1 0c-3.5 3.9-6.2 8.5-8 13.5 2.3-1.4 5.1-2.2 8-2.2s5.7.8 8 2.2c-1.8-5-4.5-9.6-8-13.5zm-16-27c-7 7.8-12.5 16.9-16 27 4.7-2.8 10.2-4.4 16-4.4s11.3 1.6 16 4.4c-3.6-10.1-9-19.2-16-27zm48 27c-3.5 3.9-6.2 8.5-8 13.5 2.3-1.4 5.1-2.2 8-2.2s5.7.8 8 2.2c-1.8-5-4.5-9.6-8-13.5zm32 0c-3.5 3.9-6.2 8.5-8 13.5 2.3-1.4 5.1-2.2 8-2.2s5.7.8 8 2.2c-1.8-5-4.5-9.6-8-13.5zm-16-27c-7 7.8-12.5 16.9-16 27 4.7-2.8 10.2-4.4 16-4.4s11.3 1.6 16 4.4c-3.6-10.1-9-19.2-16-27zm48.1 27c-3.5 3.9-6.2 8.5-8 13.5 2.3-1.4 5.1-2.2 8-2.2s5.7.8 8 2.2c-1.8-5-4.5-9.6-8-13.5zm32 0c-3.5 3.9-6.2 8.5-8 13.5 2.3-1.4 5.1-2.2 8-2.2s5.7.8 8 2.2c-1.8-5-4.5-9.6-8-13.5zm-16-27c-7 7.8-12.5 16.9-16 27 4.7-2.8 10.2-4.4 16-4.4s11.3 1.6 16 4.4c-3.6-10.1-9-19.2-16-27zm48 27c-3.5 3.9-6.2 8.5-8 13.5 2.3-1.4 5.1-2.2 8-2.2s5.7.8 8 2.2c-1.8-5-4.5-9.6-8-13.5zm32 0c-3.5 3.9-6.2 8.5-8 13.5 2.3-1.4 5.1-2.2 8-2.2s5.7.8 8 2.2c-1.8-5-4.5-9.6-8-13.5z"/><path d="M272.2 1017c-7 7.8-12.5 16.9-16 27 4.7-2.8 10.2-4.4 16-4.4s11.3 1.6 16 4.4c-3.6-10.1-9-19.2-16-27zm48.1 26.9c-3.5 3.9-6.2 8.5-8 13.5 2.3-1.4 5.1-2.2 8-2.2s5.7.8 8 2.2c-1.8-5-4.5-9.6-8-13.5zm32 0c-3.5 3.9-6.2 8.5-8 13.5 2.3-1.4 5.1-2.2 8-2.2s5.7.8 8 2.2c-1.8-5-4.5-9.6-8-13.5z"/><path d="M336.3 1017c-7 7.8-12.5 16.9-16 27 4.7-2.8 10.2-4.4 16-4.4s11.3 1.6 16 4.4c-3.6-10.1-9-19.2-16-27zm48 26.9c-3.5 3.9-6.2 8.5-8 13.5 2.3-1.4 5.1-2.2 8-2.2s5.7.8 8 2.2c-1.8-5-4.5-9.6-8-13.5zm32 0c-3.5 3.9-6.2 8.5-8 13.5 2.3-1.4 5.1-2.2 8-2.2s5.7.8 8 2.2c-1.8-5-4.5-9.6-8-13.5z"/><path d="M400.3 1017c-7 7.8-12.5 16.9-16 27 4.7-2.8 10.2-4.4 16-4.4s11.3 1.6 16 4.4c-3.6-10.1-9-19.2-16-27zm48.1 26.9c-3.5 3.9-6.2 8.5-8 13.5 2.3-1.4 5.1-2.2 8-2.2s5.7.8 8 2.2c-1.8-5-4.5-9.6-8-13.5zm32 0c-3.5 3.9-6.2 8.5-8 13.5 2.3-1.4 5.1-2.2 8-2.2s5.7.8 8 2.2c-1.8-5-4.5-9.6-8-13.5z"/><path d="M464.4 1017c-7 7.8-12.5 16.9-16 27 4.7-2.8 10.2-4.4 16-4.4s11.3 1.6 16 4.4c-3.6-10.1-9-19.2-16-27zm48 26.9c-3.5 3.9-6.2 8.5-8 13.5 2.3-1.4 5.1-2.2 8-2.2s5.7.8 8 2.2c-1.8-5-4.5-9.6-8-13.5zm32.1 0c-3.5 3.9-6.2 8.5-8 13.5 2.3-1.4 5.1-2.2 8-2.2s5.7.8 8 2.2c-1.8-5-4.5-9.6-8-13.5z"/><path d="M528.4 1017c-7 7.8-12.5 16.9-16 27 4.7-2.8 10.2-4.4 16-4.4s11.3 1.6 16 4.4c-3.6-10.1-9-19.2-16-27zm48.1 26.9c-3.5 3.9-6.2 8.5-8 13.5 2.3-1.4 5.1-2.2 8-2.2s5.7.8 8 2.2c-1.8-5-4.5-9.6-8-13.5zm32 0c-3.5 3.9-6.2 8.5-8 13.5 2.3-1.4 5.1-2.2 8-2.2s5.7.8 8 2.2c-1.8-5-4.5-9.6-8-13.5z"/><path d="M592.5 1017c-7 7.8-12.5 16.9-16 27 4.7-2.8 10.2-4.4 16-4.4s11.3 1.6 16 4.4c-3.6-10.1-9-19.2-16-27zm48 26.9c-3.5 3.9-6.2 8.5-8 13.5 2.3-1.4 5.1-2.2 8-2.2s5.7.8 8 2.2c-1.8-5-4.5-9.6-8-13.5zm32.1 0c-3.5 3.9-6.2 8.5-8 13.5 2.3-1.4 5.1-2.2 8-2.2s5.7.8 8 2.2c-1.8-5-4.5-9.6-8-13.5z"/><path d="M656.6 1017c-7 7.8-12.5 16.9-16 27 4.7-2.8 10.2-4.4 16-4.4s11.3 1.6 16 4.4c-3.6-10.1-9-19.2-16-27zm48 26.9c-3.5 3.9-6.2 8.5-8 13.5 2.3-1.4 5.1-2.2 8-2.2s5.7.8 8 2.2c-1.8-5-4.5-9.6-8-13.5zm32 0c-3.5 3.9-6.2 8.5-8 13.5 2.3-1.4 5.1-2.2 8-2.2s5.7.8 8 2.2c-1.8-5-4.5-9.6-8-13.5z"/><path d="M720.6 1017c-7 7.8-12.5 16.9-16 27 4.7-2.8 10.2-4.4 16-4.4s11.3 1.6 16 4.4c-3.6-10.1-9-19.2-16-27zm48 26.9c-3.5 3.9-6.2 8.5-8 13.5 2.3-1.4 5.1-2.2 8-2.2s5.7.8 8 2.2c-1.8-5-4.5-9.6-8-13.5zm32.1 0c-3.5 3.9-6.2 8.5-8 13.5 2.3-1.4 5.1-2.2 8-2.2s5.7.8 8 2.2c-1.8-5-4.5-9.6-8-13.5z"/><path d="M784.7 1017c-7 7.8-12.5 16.9-16 27 4.7-2.8 10.2-4.4 16-4.4s11.3 1.6 16 4.4c-3.6-10.1-9-19.2-16-27zm48 26.9c-3.5 3.9-6.2 8.5-8 13.5 2.3-1.4 5.1-2.2 8-2.2s5.7.8 8 2.2c-1.8-5-4.5-9.6-8-13.5zm32 0c-3.5 3.9-6.2 8.5-8 13.5 2.3-1.4 5.1-2.2 8-2.2s5.7.8 8 2.2c-1.8-5-4.5-9.6-8-13.5z"/><path d="M848.7 1017c-7 7.8-12.5 16.9-16 27 4.7-2.8 10.2-4.4 16-4.4s11.3 1.6 16 4.4c-3.6-10.1-9-19.2-16-27zm48.1 26.9c-3.5 3.9-6.2 8.5-8 13.5 2.3-1.4 5.1-2.2 8-2.2s5.7.8 8 2.2c-1.8-5-4.5-9.6-8-13.5zm32 0c-3.5 3.9-6.2 8.5-8 13.5 2.3-1.4 5.1-2.2 8-2.2s5.7.8 8 2.2c-1.8-5-4.5-9.6-8-13.5z"/><path d="M912.8 1017c-7 7.8-12.5 16.9-16 27 4.7-2.8 10.2-4.4 16-4.4s11.3 1.6 16 4.4c-3.6-10.1-9-19.2-16-27zm48 26.9c-3.5 3.9-6.2 8.5-8 13.5 2.3-1.4 5.1-2.2 8-2.2s5.7.8 8 2.2c-1.8-5-4.5-9.6-8-13.5zm32 0c-3.5 3.9-6.2 8.5-8 13.5 2.3-1.4 5.1-2.2 8-2.2s5.7.8 8 2.2c-1.8-5-4.5-9.6-8-13.5z"/><path d="M976.8 1017c-7 7.8-12.5 16.9-16 27 4.7-2.8 10.2-4.4 16-4.4s11.3 1.6 16 4.4c-3.6-10.1-9-19.2-16-27zm48.1 26.9c-3.5 3.9-6.2 8.5-8 13.5 2.3-1.4 5.1-2.2 8-2.2s5.7.8 8 2.2c-1.8-5-4.5-9.6-8-13.5zm32 0c-3.5 3.9-6.2 8.5-8 13.5 2.3-1.4 5.1-2.2 8-2.2s5.7.8 8 2.2c-1.8-5-4.5-9.6-8-13.5z"/><path d="M1040.9 1017c-7 7.8-12.5 16.9-16 27 4.7-2.8 10.2-4.4 16-4.4s11.3 1.6 16 4.4c-3.6-10.1-9-19.2-16-27zm48 26.9c-3.5 3.9-6.2 8.5-8 13.5 2.3-1.4 5.1-2.2 8-2.2s5.7.8 8 2.2c-1.8-5-4.5-9.6-8-13.5zm32 0c-3.5 3.9-6.2 8.5-8 13.5 2.3-1.4 5.1-2.2 8-2.2s5.7.8 8 2.2c-1.8-5-4.5-9.6-8-13.5z"/><path d="M1104.9 1017c-7 7.8-12.5 16.9-16 27 4.7-2.8 10.2-4.4 16-4.4s11.3 1.6 16 4.4c-3.6-10.1-9-19.2-16-27zm48.1 26.9c-3.5 3.9-6.2 8.5-8 13.5 2.3-1.4 5.1-2.2 8-2.2s5.7.8 8 2.2c-1.8-5-4.5-9.6-8-13.5zm32 0c-3.5 3.9-6.2 8.5-8 13.5 2.3-1.4 5.1-2.2 8-2.2s5.7.8 8 2.2c-1.8-5-4.5-9.6-8-13.5z"/><path d="M1169 1017c-7 7.8-12.5 16.9-16 27 4.7-2.8 10.2-4.4 16-4.4s11.3 1.6 16 4.4c-3.6-10.1-9-19.2-16-27zm48 26.9c-3.5 3.9-6.2 8.5-8 13.5 2.3-1.4 5.1-2.2 8-2.2s5.7.8 8 2.2c-1.8-5-4.5-9.6-8-13.5zm32.1 0c-3.5 3.9-6.2 8.5-8 13.5 2.3-1.4 5.1-2.2 8-2.2s5.7.8 8 2.2c-1.8-5-4.5-9.6-8-13.5z"/><path d="M1233 1017c-7 7.8-12.5 16.9-16 27 4.7-2.8 10.2-4.4 16-4.4s11.3 1.6 16 4.4c-3.6-10.1-9-19.2-16-27zm48.1 26.9c-3.5 3.9-6.2 8.5-8 13.5 2.3-1.4 5.1-2.2 8-2.2s5.7.8 8 2.2c-1.8-5-4.5-9.6-8-13.5zm32 0c-3.5 3.9-6.2 8.5-8 13.5 2.3-1.4 5.1-2.2 8-2.2s5.7.8 8 2.2c-1.8-5-4.5-9.6-8-13.5z"/><path d="M1297.1 1017c-7 7.8-12.5 16.9-16 27 4.7-2.8 10.2-4.4 16-4.4s11.3 1.6 16 4.4c-3.6-10.1-9-19.2-16-27zm48 26.9c-3.5 3.9-6.2 8.5-8 13.5 2.3-1.4 5.1-2.2 8-2.2s5.7.8 8 2.2c-1.8-5-4.5-9.6-8-13.5zm32.1 0c-3.5 3.9-6.2 8.5-8 13.5 2.3-1.4 5.1-2.2 8-2.2s5.7.8 8 2.2c-1.8-5-4.5-9.6-8-13.5z"/><path d="M1361.2 1017c-7 7.8-12.5 16.9-16 27 4.7-2.8 10.2-4.4 16-4.4s11.3 1.6 16 4.4c-3.6-10.1-9-19.2-16-27zm48 26.9c-3.5 3.9-6.2 8.5-8 13.5 2.3-1.4 5.1-2.2 8-2.2s5.7.8 8 2.2c-1.8-5-4.5-9.6-8-13.5zm32 0c-3.5 3.9-6.2 8.5-8 13.5 2.3-1.4 5.1-2.2 8-2.2s5.7.8 8 2.2c-1.8-5-4.5-9.6-8-13.5z"/><path d="M1425.2 1017c-7 7.8-12.5 16.9-16 27 4.7-2.8 10.2-4.4 16-4.4s11.3 1.6 16 4.4c-3.6-10.1-9-19.2-16-27zm48 26.9c-3.5 3.9-6.2 8.5-8 13.5 2.3-1.4 5.1-2.2 8-2.2s5.7.8 8 2.2c-1.8-5-4.5-9.6-8-13.5zm32.1 0c-3.5 3.9-6.2 8.5-8 13.5 2.3-1.4 5.1-2.2 8-2.2s5.7.8 8 2.2c-1.8-5-4.5-9.6-8-13.5z"/><path d="M1489.3 1017c-7 7.8-12.5 16.9-16 27 4.7-2.8 10.2-4.4 16-4.4s11.3 1.6 16 4.4c-3.6-10.1-9-19.2-16-27zm48 26.9c-3.5 3.9-6.2 8.5-8 13.5 2.3-1.4 5.1-2.2 8-2.2s5.7.8 8 2.2c-1.8-5-4.5-9.6-8-13.5zm32 0c-3.5 3.9-6.2 8.5-8 13.5 2.3-1.4 5.1-2.2 8-2.2s5.7.8 8 2.2c-1.8-5-4.5-9.6-8-13.5z"/><path d="M1553.3 1017c-7 7.8-12.5 16.9-16 27 4.7-2.8 10.2-4.4 16-4.4s11.3 1.6 16 4.4c-3.6-10.1-9-19.2-16-27zm48.1 26.9c-3.5 3.9-6.2 8.5-8 13.5 2.3-1.4 5.1-2.2 8-2.2s5.7.8 8 2.2c-1.8-5-4.5-9.6-8-13.5zm32 0c-3.5 3.9-6.2 8.5-8 13.5 2.3-1.4 5.1-2.2 8-2.2s5.7.8 8 2.2c-1.8-5-4.5-9.6-8-13.5z"/><path d="M1617.4 1017c-7 7.8-12.5 16.9-16 27 4.7-2.8 10.2-4.4 16-4.4s11.3 1.6 16 4.4c-3.6-10.1-9-19.2-16-27zm48 26.9c-3.5 3.9-6.2 8.5-8 13.5 2.3-1.4 5.1-2.2 8-2.2s5.7.8 8 2.2c-1.8-5-4.5-9.6-8-13.5zm32 0c-3.5 3.9-6.2 8.5-8 13.5 2.3-1.4 5.1-2.2 8-2.2s5.7.8 8 2.2c-1.8-5-4.5-9.6-8-13.5z"/><path d="M1681.4 1017c-7 7.8-12.5 16.9-16 27 4.7-2.8 10.2-4.4 16-4.4s11.3 1.6 16 4.4c-3.6-10.1-9-19.2-16-27zm48.1 26.9c-3.5 3.9-6.2 8.5-8 13.5 2.3-1.4 5.1-2.2 8-2.2s5.7.8 8 2.2c-1.8-5-4.5-9.6-8-13.5zm32 0c-3.5 3.9-6.2 8.5-8 13.5 2.3-1.4 5.1-2.2 8-2.2s5.7.8 8 2.2c-1.8-5-4.5-9.6-8-13.5z"/><path d="M1745.5 1017c-7 7.8-12.5 16.9-16 27 4.7-2.8 10.2-4.4 16-4.4s11.3 1.6 16 4.4c-3.6-10.1-9-19.2-16-27z"/></g><g fill="#7fc8a2"><path d="M1265.1 207.2c-111.5 124.6-199.3 270.9-256.2 431.8-75-44.6-162.6-70.2-256.2-70.2S571.5 594.4 496.5 639c-56.9-160.9-144.7-307.2-256.2-431.8C390.3 118 565.5 66.8 752.7 66.8s362.4 51.3 512.5 140.4zM112.1 855C84.2 886.2 62.3 922.7 48 963c-18.8-11.1-40.7-17.6-64.1-17.6s-45.3 6.4-64.1 17.5c-14.2-40.2-36.2-76.8-64.1-108 37.5-22.3 81.3-35.1 128.1-35.1s90.6 12.8 128.1 35.1z"/><path d="M368.3 855c-27.9 31.2-49.8 67.7-64.1 108-18.8-11.1-40.7-17.6-64.1-17.6s-45.3 6.4-64.1 17.5c-14.2-40.2-36.2-76.8-64.1-108 37.5-22.3 81.3-35.1 128.1-35.1s90.6 12.8 128.1 35.1z"/><path d="M624.5 855c-27.9 31.2-49.8 67.7-64.1 108-18.8-11.1-40.7-17.6-64.1-17.6s-45.3 6.4-64.1 17.5c-14.2-40.2-36.2-76.8-64.1-108 37.5-22.3 81.3-35.1 128.1-35.1s90.6 12.8 128.1 35.1z"/><path d="M880.7 855c-27.9 31.2-49.8 67.7-64.1 108-18.8-11.1-40.7-17.6-64.1-17.6s-45.3 6.4-64.1 17.5c-14.2-40.2-36.2-76.8-64.1-108 37.5-22.3 81.3-35.1 128.1-35.1s90.6 12.8 128.1 35.1z"/><path d="M1137 855c-27.9 31.2-49.8 67.7-64.1 108-18.8-11.1-40.7-17.6-64.1-17.6s-45.3 6.4-64.1 17.5c-14.2-40.2-36.2-76.8-64.1-108 37.5-22.3 81.3-35.1 128.1-35.1s90.6 12.8 128.1 35.1zM240.2 207.2C128.7 331.8 40.9 478.1-16 639c-75-44.6-162.6-70.2-256.2-70.2s-181.2 25.6-256.2 70.2c-56.9-160.9-144.7-307.2-256.2-431.8 150-89.2 325.2-140.4 512.3-140.4S90.2 118 240.2 207.2zm2049.7 0c-111.5 124.6-199.3 270.9-256.2 431.8-75-44.6-162.6-70.2-256.2-70.2s-181.2 25.6-256.2 70.2c-56.9-160.9-144.7-307.2-256.2-431.8 150-89.2 325.2-140.4 512.4-140.4s362.4 51.3 512.5 140.4z"/><path d="M1393.2 855c-27.9 31.2-49.8 67.7-64.1 108-18.8-11.1-40.7-17.6-64.1-17.6s-45.3 6.4-64.1 17.5c-14.2-40.2-36.2-76.8-64.1-108 37.5-22.3 81.3-35.1 128.1-35.1s90.6 12.8 128.1 35.1z"/><path d="M1649.4 855c-27.9 31.2-49.8 67.7-64.1 108-18.8-11.1-40.7-17.6-64.1-17.6s-45.3 6.4-64.1 17.5c-14.2-40.2-36.2-76.8-64.1-108 37.5-22.3 81.3-35.1 128.1-35.1s90.6 12.8 128.1 35.1zm-1825.6 161.9c-7 7.8-12.5 16.9-16 27-4.7-2.8-10.2-4.4-16-4.4s-11.3 1.6-16 4.4c-3.6-10.1-9-19.2-16-27 9.4-5.6 20.3-8.8 32-8.8s22.7 3.2 32 8.8zm64.1 0c-7 7.8-12.5 16.9-16 27-4.7-2.8-10.2-4.4-16-4.4s-11.3 1.6-16 4.4c-3.6-10.1-9-19.2-16-27 9.4-5.6 20.3-8.8 32-8.8s22.7 3.2 32 8.8zm64 0c-7 7.8-12.5 16.9-16 27-4.7-2.8-10.2-4.4-16-4.4s-11.3 1.6-16 4.4c-3.6-10.1-9-19.2-16-27 9.4-5.6 20.3-8.8 32-8.8s22.7 3.2 32 8.8zm64.1 0c-7 7.8-12.5 16.9-16 27-4.7-2.8-10.2-4.4-16-4.4s-11.3 1.6-16 4.4c-3.6-10.1-9-19.2-16-27 9.4-5.6 20.3-8.8 32-8.8s22.7 3.2 32 8.8zm64.1 0c-7 7.8-12.5 16.9-16 27-4.7-2.8-10.2-4.4-16-4.4s-11.3 1.6-16 4.4c-3.6-10.1-9-19.2-16-27 9.4-5.6 20.3-8.8 32-8.8s22.7 3.2 32 8.8zm64 0c-7 7.8-12.5 16.9-16 27-4.7-2.8-10.2-4.4-16-4.4s-11.3 1.6-16 4.4c-3.6-10.1-9-19.2-16-27 9.4-5.6 20.3-8.8 32-8.8s22.7 3.2 32 8.8zm64.1 0c-7 7.8-12.5 16.9-16 27-4.7-2.8-10.2-4.4-16-4.4s-11.3 1.6-16 4.4c-3.6-10.1-9-19.2-16-27 9.4-5.6 20.3-8.8 32-8.8s22.7 3.2 32 8.8zm64 .1c-7 7.8-12.5 16.9-16 27-4.7-2.8-10.2-4.4-16-4.4s-11.3 1.6-16 4.4c-3.6-10.1-9-19.2-16-27 9.4-5.6 20.3-8.8 32-8.8s22.7 3.2 32 8.8zm64.1 0c-7 7.8-12.5 16.9-16 27-4.7-2.8-10.2-4.4-16-4.4s-11.3 1.6-16 4.4c-3.6-10.1-9-19.2-16-27 9.4-5.6 20.3-8.8 32-8.8s22.7 3.2 32 8.8zm64 0c-7 7.8-12.5 16.9-16 27-4.7-2.8-10.2-4.4-16-4.4s-11.3 1.6-16 4.4c-3.6-10.1-9-19.2-16-27 9.4-5.6 20.3-8.8 32-8.8s22.7 3.2 32 8.8zm64.1 0c-7 7.8-12.5 16.9-16 27-4.7-2.8-10.2-4.4-16-4.4s-11.3 1.6-16 4.4c-3.6-10.1-9-19.2-16-27 9.4-5.6 20.3-8.8 32-8.8s22.7 3.2 32 8.8zm64 0c-7 7.8-12.5 16.9-16 27-4.7-2.8-10.2-4.4-16-4.4s-11.3 1.6-16 4.4c-3.6-10.1-9-19.2-16-27 9.4-5.6 20.3-8.8 32-8.8s22.7 3.2 32 8.8zm64.1 0c-7 7.8-12.5 16.9-16 27-4.7-2.8-10.2-4.4-16-4.4s-11.3 1.6-16 4.4c-3.6-10.1-9-19.2-16-27 9.4-5.6 20.3-8.8 32-8.8s22.7 3.2 32 8.8zm64.1 0c-7 7.8-12.5 16.9-16 27-4.7-2.8-10.2-4.4-16-4.4s-11.3 1.6-16 4.4c-3.6-10.1-9-19.2-16-27 9.4-5.6 20.3-8.8 32-8.8s22.7 3.2 32 8.8zm64 0c-7 7.8-12.5 16.9-16 27-4.7-2.8-10.2-4.4-16-4.4s-11.3 1.6-16 4.4c-3.6-10.1-9-19.2-16-27 9.4-5.6 20.3-8.8 32-8.8s22.7 3.2 32 8.8zm64.1 0c-7 7.8-12.5 16.9-16 27-4.7-2.8-10.2-4.4-16-4.4s-11.3 1.6-16 4.4c-3.6-10.1-9-19.2-16-27 9.4-5.6 20.3-8.8 32-8.8s22.7 3.2 32 8.8zm64 0c-7 7.8-12.5 16.9-16 27-4.7-2.8-10.2-4.4-16-4.4s-11.3 1.6-16 4.4c-3.6-10.1-9-19.2-16-27 9.4-5.6 20.3-8.8 32-8.8s22.7 3.2 32 8.8zm64.1 0c-7 7.8-12.5 16.9-16 27-4.7-2.8-10.2-4.4-16-4.4s-11.3 1.6-16 4.4c-3.6-10.1-9-19.2-16-27 9.4-5.6 20.3-8.8 32-8.8s22.7 3.2 32 8.8zm64 0c-7 7.8-12.5 16.9-16 27-4.7-2.8-10.2-4.4-16-4.4s-11.3 1.6-16 4.4c-3.6-10.1-9-19.2-16-27 9.4-5.6 20.3-8.8 32-8.8s22.7 3.2 32 8.8zm64.1 0c-7 7.8-12.5 16.9-16 27-4.7-2.8-10.2-4.4-16-4.4s-11.3 1.6-16 4.4c-3.6-10.1-9-19.2-16-27 9.4-5.6 20.3-8.8 32-8.8s22.7 3.2 32 8.8zm64 0c-7 7.8-12.5 16.9-16 27-4.7-2.8-10.2-4.4-16-4.4s-11.3 1.6-16 4.4c-3.6-10.1-9-19.2-16-27 9.4-5.6 20.3-8.8 32-8.8s22.7 3.2 32 8.8zm64.1 0c-7 7.8-12.5 16.9-16 27-4.7-2.8-10.2-4.4-16-4.4s-11.3 1.6-16 4.4c-3.6-10.1-9-19.2-16-27 9.4-5.6 20.3-8.8 32-8.8s22.7 3.2 32 8.8zm64 0c-7 7.8-12.5 16.9-16 27-4.7-2.8-10.2-4.4-16-4.4s-11.3 1.6-16 4.4c-3.6-10.1-9-19.2-16-27 9.4-5.6 20.3-8.8 32-8.8s22.7 3.2 32 8.8zm64.1 0c-7 7.8-12.5 16.9-16 27-4.7-2.8-10.2-4.4-16-4.4s-11.3 1.6-16 4.4c-3.6-10.1-9-19.2-16-27 9.4-5.6 20.3-8.8 32-8.8s22.7 3.2 32 8.8zm64.1 0c-7 7.8-12.5 16.9-16 27-4.7-2.8-10.2-4.4-16-4.4s-11.3 1.6-16 4.4c-3.6-10.1-9-19.2-16-27 9.4-5.6 20.3-8.8 32-8.8s22.7 3.2 32 8.8zm64 0c-7 7.8-12.5 16.9-16 27-4.7-2.8-10.2-4.4-16-4.4s-11.3 1.6-16 4.4c-3.6-10.1-9-19.2-16-27 9.4-5.6 20.3-8.8 32-8.8s22.7 3.2 32 8.8zm64.1 0c-7 7.8-12.5 16.9-16 27-4.7-2.8-10.2-4.4-16-4.4s-11.3 1.6-16 4.4c-3.6-10.1-9-19.2-16-27 9.4-5.6 20.3-8.8 32-8.8s22.7 3.2 32 8.8zm64 0c-7 7.8-12.5 16.9-16 27-4.7-2.8-10.2-4.4-16-4.4s-11.3 1.6-16 4.4c-3.6-10.1-9-19.2-16-27 9.4-5.6 20.3-8.8 32-8.8s22.7 3.2 32 8.8zm64.1 0c-7 7.8-12.5 16.9-16 27-4.7-2.8-10.2-4.4-16-4.4s-11.3 1.6-16 4.4c-3.6-10.1-9-19.2-16-27 9.4-5.6 20.3-8.8 32-8.8s22.7 3.2 32 8.8zm64 0c-7 7.8-12.5 16.9-16 27-4.7-2.8-10.2-4.4-16-4.4s-11.3 1.6-16 4.4c-3.6-10.1-9-19.2-16-27 9.4-5.6 20.3-8.8 32-8.8s22.7 3.2 32 8.8zm64.1 0c-7 7.8-12.5 16.9-16 27-4.7-2.8-10.2-4.4-16-4.4s-11.3 1.6-16 4.4c-3.6-10.1-9-19.2-16-27 9.4-5.6 20.3-8.8 32-8.8s22.7 3.2 32 8.8z"/></g><g fill="#7fc0e6"><path d="M496.4 639.1c-55.8 62.3-99.7 135.5-128.1 215.9-37.5-22.3-81.3-35.1-128.1-35.1s-90.6 12.8-128.1 35.1C83.7 774.5 39.8 701.4-16 639.1c75-44.6 162.6-70.2 256.2-70.2s181.2 25.6 256.2 70.2zm512.4 0C953 701.4 909.1 774.6 880.7 855c-37.5-22.3-81.3-35.1-128.1-35.1S662 832.7 624.5 855c-28.4-80.5-72.3-153.6-128.1-215.9 75-44.6 162.6-70.2 256.2-70.2s181.2 25.6 256.2 70.2zm512.5 0c-55.8 62.3-99.7 135.5-128.1 215.9-37.5-22.3-81.3-35.1-128.1-35.1s-90.6 12.8-128.1 35.1c-28.4-80.5-72.3-153.6-128.1-215.9 75-44.6 162.6-70.2 256.2-70.2s181.2 25.6 256.2 70.2zM-80.1 963c-13.9 15.6-24.9 33.9-32 54-9.4-5.6-20.3-8.8-32-8.8s-22.6 3.2-32 8.8c-7.1-20.1-18.1-38.4-32-54 18.8-11.1 40.7-17.6 64.1-17.6s45.3 6.4 64.1 17.6z"/><path d="M48 963c-13.9 15.6-24.9 33.9-32 54-9.4-5.6-20.3-8.8-32-8.8s-22.6 3.2-32 8.8c-7.1-20.1-18.1-38.4-32-54 18.8-11.1 40.7-17.6 64.1-17.6s45.3 6.4 64.1 17.6z"/><path d="M176.1 963c-13.9 15.6-24.9 33.9-32 54-9.4-5.6-20.3-8.8-32-8.8s-22.6 3.2-32 8.8c-7.1-20.1-18.1-38.4-32-54 18.8-11.1 40.7-17.6 64.1-17.6s45.3 6.4 64.1 17.6z"/><path d="M304.2 963c-13.9 15.6-24.9 33.9-32 54-9.4-5.6-20.3-8.8-32-8.8s-22.6 3.2-32 8.8c-7.1-20.1-18.1-38.4-32-54 18.8-11.1 40.7-17.6 64.1-17.6s45.3 6.4 64.1 17.6zm128.2 0c-13.9 15.6-24.9 33.9-32 54-9.4-5.6-20.3-8.8-32-8.8s-22.6 3.2-32 8.8c-7.1-20.1-18.1-38.4-32-54 18.8-11.1 40.7-17.6 64.1-17.6s45.3 6.4 64.1 17.6z"/><path d="M560.5 963c-13.9 15.6-24.9 33.9-32 54-9.4-5.6-20.3-8.8-32-8.8s-22.6 3.2-32 8.8c-7.1-20.1-18.1-38.4-32-54 18.8-11.1 40.7-17.6 64.1-17.6s45.3 6.4 64.1 17.6z"/><path d="M688.6 963c-13.9 15.6-24.9 33.9-32 54-9.4-5.6-20.3-8.8-32-8.8s-22.6 3.2-32 8.8c-7.1-20.1-18.1-38.4-32-54 18.8-11.1 40.7-17.6 64.1-17.6s45.3 6.4 64.1 17.6z"/><path d="M816.7 963c-13.9 15.6-24.9 33.9-32 54-9.4-5.6-20.3-8.8-32-8.8s-22.6 3.2-32 8.8c-7.1-20.1-18.1-38.4-32-54 18.8-11.1 40.7-17.6 64.1-17.6s45.3 6.4 64.1 17.6z"/><path d="M944.8 963c-13.9 15.6-24.9 33.9-32 54-9.4-5.6-20.3-8.8-32-8.8s-22.6 3.2-32 8.8c-7.1-20.1-18.1-38.4-32-54 18.8-11.1 40.7-17.6 64.1-17.6s45.3 6.4 64.1 17.6z"/><path d="M1072.9 963c-13.9 15.6-24.9 33.9-32 54-9.4-5.6-20.3-8.8-32-8.8s-22.6 3.2-32 8.8c-7.1-20.1-18.1-38.4-32-54 18.8-11.1 40.7-17.6 64.1-17.6s45.3 6.4 64.1 17.6zm704.6-1619.5c-223.1 249.2-398.6 541.8-512.4 863.7-150-89.2-325.3-140.4-512.5-140.4S390.2 118 240.2 207.2C126.4-114.6-49.2-407.3-272.2-656.5c300-178.4 650.4-280.8 1024.8-280.8s724.8 102.5 1024.9 280.9z"/><path d="M1201 963c-13.9 15.6-24.9 33.9-32 54-9.4-5.6-20.3-8.8-32-8.8s-22.6 3.2-32 8.8c-7.1-20.1-18.1-38.4-32-54 18.8-11.1 40.7-17.6 64.1-17.6s45.3 6.4 64.1 17.6z"/><path d="M1329.1 963c-13.9 15.6-24.9 33.9-32 54-9.4-5.6-20.3-8.8-32-8.8s-22.6 3.2-32 8.8c-7.1-20.1-18.1-38.4-32-54 18.8-11.1 40.7-17.6 64.1-17.6s45.3 6.4 64.1 17.6z"/><path d="M1457.2 963c-13.9 15.6-24.9 33.9-32 54-9.4-5.6-20.3-8.8-32-8.8s-22.6 3.2-32 8.8c-7.1-20.1-18.1-38.4-32-54 18.8-11.1 40.7-17.6 64.1-17.6s45.3 6.4 64.1 17.6z"/><path d="M1585.3 963c-13.9 15.6-24.9 33.9-32 54-9.4-5.6-20.3-8.8-32-8.8s-22.6 3.2-32 8.8c-7.1-20.1-18.1-38.4-32-54 18.8-11.1 40.7-17.6 64.1-17.6s45.3 6.4 64.1 17.6zm128.2 0c-13.9 15.6-24.9 33.9-32 54-9.4-5.6-20.3-8.8-32-8.8s-22.6 3.2-32 8.8c-7.1-20.1-18.1-38.4-32-54 18.8-11.1 40.7-17.6 64.1-17.6s45.3 6.4 64.1 17.6zm-1937.7 80.9c-3.5 3.9-6.2 8.5-8 13.5-2.3-1.4-5.1-2.2-8-2.2s-5.7.8-8 2.2c-1.8-5-4.5-9.6-8-13.5 4.7-2.8 10.2-4.4 16-4.4s11.3 1.6 16 4.4zm32 0c-3.5 3.9-6.2 8.5-8 13.5-2.3-1.4-5.1-2.2-8-2.2s-5.7.8-8 2.2c-1.8-5-4.5-9.6-8-13.5 4.7-2.8 10.2-4.4 16-4.4s11.3 1.6 16 4.4zm32.1 0c-3.5 3.9-6.2 8.5-8 13.5-2.3-1.4-5.1-2.2-8-2.2s-5.7.8-8 2.2c-1.8-5-4.5-9.6-8-13.5 4.7-2.8 10.2-4.4 16-4.4s11.3 1.6 16 4.4zm32 0c-3.5 3.9-6.2 8.5-8 13.5-2.3-1.4-5.1-2.2-8-2.2s-5.7.8-8 2.2c-1.8-5-4.5-9.6-8-13.5 4.7-2.8 10.2-4.4 16-4.4s11.3 1.6 16 4.4zm32 0c-3.5 3.9-6.2 8.5-8 13.5-2.3-1.4-5.1-2.2-8-2.2s-5.7.8-8 2.2c-1.8-5-4.5-9.6-8-13.5 4.7-2.8 10.2-4.4 16-4.4s11.3 1.6 16 4.4zm32 0c-3.5 3.9-6.2 8.5-8 13.5-2.3-1.4-5.1-2.2-8-2.2s-5.7.8-8 2.2c-1.8-5-4.5-9.6-8-13.5 4.7-2.8 10.2-4.4 16-4.4s11.3 1.6 16 4.4zm32.1 0c-3.5 3.9-6.2 8.5-8 13.5-2.3-1.4-5.1-2.2-8-2.2s-5.7.8-8 2.2c-1.8-5-4.5-9.6-8-13.5 4.7-2.8 10.2-4.4 16-4.4s11.3 1.6 16 4.4zm32 0c-3.5 3.9-6.2 8.5-8 13.5-2.3-1.4-5.1-2.2-8-2.2s-5.7.8-8 2.2c-1.8-5-4.5-9.6-8-13.5 4.7-2.8 10.2-4.4 16-4.4s11.3 1.6 16 4.4zm32 0c-3.5 3.9-6.2 8.5-8 13.5-2.3-1.4-5.1-2.2-8-2.2s-5.7.8-8 2.2c-1.8-5-4.5-9.6-8-13.5 4.7-2.8 10.2-4.4 16-4.4s11.3 1.6 16 4.4zm32 0c-3.5 3.9-6.2 8.5-8 13.5-2.3-1.4-5.1-2.2-8-2.2s-5.7.8-8 2.2c-1.8-5-4.5-9.6-8-13.5 4.7-2.8 10.2-4.4 16-4.4s11.3 1.6 16 4.4zm32.1 0c-3.5 3.9-6.2 8.5-8 13.5-2.3-1.4-5.1-2.2-8-2.2s-5.7.8-8 2.2c-1.8-5-4.5-9.6-8-13.5 4.7-2.8 10.2-4.4 16-4.4s11.3 1.6 16 4.4zm32 0c-3.5 3.9-6.2 8.5-8 13.5-2.3-1.4-5.1-2.2-8-2.2s-5.7.8-8 2.2c-1.8-5-4.5-9.6-8-13.5 4.7-2.8 10.2-4.4 16-4.4s11.3 1.6 16 4.4zm32 0c-3.5 3.9-6.2 8.5-8 13.5-2.3-1.4-5.1-2.2-8-2.2s-5.7.8-8 2.2c-1.8-5-4.5-9.6-8-13.5 4.7-2.8 10.2-4.4 16-4.4s11.3 1.6 16 4.4zm32.1 0c-3.5 3.9-6.2 8.5-8 13.5-2.3-1.4-5.1-2.2-8-2.2s-5.7.8-8 2.2c-1.8-5-4.5-9.6-8-13.5 4.7-2.8 10.2-4.4 16-4.4s11.3 1.6 16 4.4zm32 0c-3.5 3.9-6.2 8.5-8 13.5-2.3-1.4-5.1-2.2-8-2.2s-5.7.8-8 2.2c-1.8-5-4.5-9.6-8-13.5 4.7-2.8 10.2-4.4 16-4.4s11.3 1.6 16 4.4zm32 0c-3.5 3.9-6.2 8.5-8 13.5-2.3-1.4-5.1-2.2-8-2.2s-5.7.8-8 2.2c-1.8-5-4.5-9.6-8-13.5 4.7-2.8 10.2-4.4 16-4.4s11.3 1.6 16 4.4zm32 0c-3.5 3.9-6.2 8.5-8 13.5-2.3-1.4-5.1-2.2-8-2.2s-5.7.8-8 2.2c-1.8-5-4.5-9.6-8-13.5 4.7-2.8 10.2-4.4 16-4.4s11.3 1.6 16 4.4zm32.1 0c-3.5 3.9-6.2 8.5-8 13.5-2.3-1.4-5.1-2.2-8-2.2s-5.7.8-8 2.2c-1.8-5-4.5-9.6-8-13.5 4.7-2.8 10.2-4.4 16-4.4s11.3 1.6 16 4.4zm32 0c-3.5 3.9-6.2 8.5-8 13.5-2.3-1.4-5.1-2.2-8-2.2s-5.7.8-8 2.2c-1.8-5-4.5-9.6-8-13.5 4.7-2.8 10.2-4.4 16-4.4s11.3 1.6 16 4.4zm32 0c-3.5 3.9-6.2 8.5-8 13.5-2.3-1.4-5.1-2.2-8-2.2s-5.7.8-8 2.2c-1.8-5-4.5-9.6-8-13.5 4.7-2.8 10.2-4.4 16-4.4s11.3 1.6 16 4.4zm32 0c-3.5 3.9-6.2 8.5-8 13.5-2.3-1.4-5.1-2.2-8-2.2s-5.7.8-8 2.2c-1.8-5-4.5-9.6-8-13.5 4.7-2.8 10.2-4.4 16-4.4s11.3 1.6 16 4.4zm32.1 0c-3.5 3.9-6.2 8.5-8 13.5-2.3-1.4-5.1-2.2-8-2.2s-5.7.8-8 2.2c-1.8-5-4.5-9.6-8-13.5 4.7-2.8 10.2-4.4 16-4.4s11.3 1.6 16 4.4zm32 0c-3.5 3.9-6.2 8.5-8 13.5-2.3-1.4-5.1-2.2-8-2.2s-5.7.8-8 2.2c-1.8-5-4.5-9.6-8-13.5 4.7-2.8 10.2-4.4 16-4.4s11.3 1.6 16 4.4zm32 0c-3.5 3.9-6.2 8.5-8 13.5-2.3-1.4-5.1-2.2-8-2.2s-5.7.8-8 2.2c-1.8-5-4.5-9.6-8-13.5 4.7-2.8 10.2-4.4 16-4.4s11.3 1.6 16 4.4zm32.1 0c-3.5 3.9-6.2 8.5-8 13.5-2.3-1.4-5.1-2.2-8-2.2s-5.7.8-8 2.2c-1.8-5-4.5-9.6-8-13.5 4.7-2.8 10.2-4.4 16-4.4s11.3 1.6 16 4.4zm32 0c-3.5 3.9-6.2 8.5-8 13.5-2.3-1.4-5.1-2.2-8-2.2s-5.7.8-8 2.2c-1.8-5-4.5-9.6-8-13.5 4.7-2.8 10.2-4.4 16-4.4s11.3 1.6 16 4.4zm32 0c-3.5 3.9-6.2 8.5-8 13.5-2.3-1.4-5.1-2.2-8-2.2s-5.7.8-8 2.2c-1.8-5-4.5-9.6-8-13.5 4.7-2.8 10.2-4.4 16-4.4s11.3 1.6 16 4.4zm32 0c-3.5 3.9-6.2 8.5-8 13.5-2.3-1.4-5.1-2.2-8-2.2s-5.7.8-8 2.2c-1.8-5-4.5-9.6-8-13.5 4.7-2.8 10.2-4.4 16-4.4s11.3 1.6 16 4.4zm32.1 0c-3.5 3.9-6.2 8.5-8 13.5-2.3-1.4-5.1-2.2-8-2.2s-5.7.8-8 2.2c-1.8-5-4.5-9.6-8-13.5 4.7-2.8 10.2-4.4 16-4.4s11.3 1.6 16 4.4zm32 0c-3.5 3.9-6.2 8.5-8 13.5-2.3-1.4-5.1-2.2-8-2.2s-5.7.8-8 2.2c-1.8-5-4.5-9.6-8-13.5 4.7-2.8 10.2-4.4 16-4.4s11.3 1.6 16 4.4zm32 0c-3.5 3.9-6.2 8.5-8 13.5-2.3-1.4-5.1-2.2-8-2.2s-5.7.8-8 2.2c-1.8-5-4.5-9.6-8-13.5 4.7-2.8 10.2-4.4 16-4.4s11.3 1.6 16 4.4zm32 0c-3.5 3.9-6.2 8.5-8 13.5-2.3-1.4-5.1-2.2-8-2.2s-5.7.8-8 2.2c-1.8-5-4.5-9.6-8-13.5 4.7-2.8 10.2-4.4 16-4.4s11.3 1.6 16 4.4zm32.1 0c-3.5 3.9-6.2 8.5-8 13.5-2.3-1.4-5.1-2.2-8-2.2s-5.7.8-8 2.2c-1.8-5-4.5-9.6-8-13.5 4.7-2.8 10.2-4.4 16-4.4s11.3 1.6 16 4.4zm32 0c-3.5 3.9-6.2 8.5-8 13.5-2.3-1.4-5.1-2.2-8-2.2s-5.7.8-8 2.2c-1.8-5-4.5-9.6-8-13.5 4.7-2.8 10.2-4.4 16-4.4s11.3 1.6 16 4.4zm32 0c-3.5 3.9-6.2 8.5-8 13.5-2.3-1.4-5.1-2.2-8-2.2s-5.7.8-8 2.2c-1.8-5-4.5-9.6-8-13.5 4.7-2.8 10.2-4.4 16-4.4s11.3 1.6 16 4.4zm32.1 0c-3.5 3.9-6.2 8.5-8 13.5-2.3-1.4-5.1-2.2-8-2.2s-5.7.8-8 2.2c-1.8-5-4.5-9.6-8-13.5 4.7-2.8 10.2-4.4 16-4.4s11.3 1.6 16 4.4zm32 0c-3.5 3.9-6.2 8.5-8 13.5-2.3-1.4-5.1-2.2-8-2.2s-5.7.8-8 2.2c-1.8-5-4.5-9.6-8-13.5 4.7-2.8 10.2-4.4 16-4.4s11.3 1.6 16 4.4zm32 0c-3.5 3.9-6.2 8.5-8 13.5-2.3-1.4-5.1-2.2-8-2.2s-5.7.8-8 2.2c-1.8-5-4.5-9.6-8-13.5 4.7-2.8 10.2-4.4 16-4.4s11.3 1.6 16 4.4zm32 0c-3.5 3.9-6.2 8.5-8 13.5-2.3-1.4-5.1-2.2-8-2.2s-5.7.8-8 2.2c-1.8-5-4.5-9.6-8-13.5 4.7-2.8 10.2-4.4 16-4.4s11.3 1.6 16 4.4zm32.1 0c-3.5 3.9-6.2 8.5-8 13.5-2.3-1.4-5.1-2.2-8-2.2s-5.7.8-8 2.2c-1.8-5-4.5-9.6-8-13.5 4.7-2.8 10.2-4.4 16-4.4s11.3 1.6 16 4.4zm32 0c-3.5 3.9-6.2 8.5-8 13.5-2.3-1.4-5.1-2.2-8-2.2s-5.7.8-8 2.2c-1.8-5-4.5-9.6-8-13.5 4.7-2.8 10.2-4.4 16-4.4s11.3 1.6 16 4.4zm32 0c-3.5 3.9-6.2 8.5-8 13.5-2.3-1.4-5.1-2.2-8-2.2s-5.7.8-8 2.2c-1.8-5-4.5-9.6-8-13.5 4.7-2.8 10.2-4.4 16-4.4s11.3 1.6 16 4.4zm32 0c-3.5 3.9-6.2 8.5-8 13.5-2.3-1.4-5.1-2.2-8-2.2s-5.7.8-8 2.2c-1.8-5-4.5-9.6-8-13.5 4.7-2.8 10.2-4.4 16-4.4s11.3 1.6 16 4.4zm32.1 0c-3.5 3.9-6.2 8.5-8 13.5-2.3-1.4-5.1-2.2-8-2.2s-5.7.8-8 2.2c-1.8-5-4.5-9.6-8-13.5 4.7-2.8 10.2-4.4 16-4.4s11.3 1.6 16 4.4zm32 0c-3.5 3.9-6.2 8.5-8 13.5-2.3-1.4-5.1-2.2-8-2.2s-5.7.8-8 2.2c-1.8-5-4.5-9.6-8-13.5 4.7-2.8 10.2-4.4 16-4.4s11.3 1.6 16 4.4zm32 0c-3.5 3.9-6.2 8.5-8 13.5-2.3-1.4-5.1-2.2-8-2.2s-5.7.8-8 2.2c-1.8-5-4.5-9.6-8-13.5 4.7-2.8 10.2-4.4 16-4.4s11.3 1.6 16 4.4zm32.1 0c-3.5 3.9-6.2 8.5-8 13.5-2.3-1.4-5.1-2.2-8-2.2s-5.7.8-8 2.2c-1.8-5-4.5-9.6-8-13.5 4.7-2.8 10.2-4.4 16-4.4s11.3 1.6 16 4.4zm32 0c-3.5 3.9-6.2 8.5-8 13.5-2.3-1.4-5.1-2.2-8-2.2s-5.7.8-8 2.2c-1.8-5-4.5-9.6-8-13.5 4.7-2.8 10.2-4.4 16-4.4s11.3 1.6 16 4.4zm32 0c-3.5 3.9-6.2 8.5-8 13.5-2.3-1.4-5.1-2.2-8-2.2s-5.7.8-8 2.2c-1.8-5-4.5-9.6-8-13.5 4.7-2.8 10.2-4.4 16-4.4s11.3 1.6 16 4.4zm32 0c-3.5 3.9-6.2 8.5-8 13.5-2.3-1.4-5.1-2.2-8-2.2s-5.7.8-8 2.2c-1.8-5-4.5-9.6-8-13.5 4.7-2.8 10.2-4.4 16-4.4s11.3 1.6 16 4.4zm32.1 0c-3.5 3.9-6.2 8.5-8 13.5-2.3-1.4-5.1-2.2-8-2.2s-5.7.8-8 2.2c-1.8-5-4.5-9.6-8-13.5 4.7-2.8 10.2-4.4 16-4.4s11.3 1.6 16 4.4zm32 0c-3.5 3.9-6.2 8.5-8 13.5-2.3-1.4-5.1-2.2-8-2.2s-5.7.8-8 2.2c-1.8-5-4.5-9.6-8-13.5 4.7-2.8 10.2-4.4 16-4.4s11.3 1.6 16 4.4zm32 0c-3.5 3.9-6.2 8.5-8 13.5-2.3-1.4-5.1-2.2-8-2.2s-5.7.8-8 2.2c-1.8-5-4.5-9.6-8-13.5 4.7-2.8 10.2-4.4 16-4.4s11.3 1.6 16 4.4zm32 0c-3.5 3.9-6.2 8.5-8 13.5-2.3-1.4-5.1-2.2-8-2.2s-5.7.8-8 2.2c-1.8-5-4.5-9.6-8-13.5 4.7-2.8 10.2-4.4 16-4.4s11.3 1.6 16 4.4zm32.1 0c-3.5 3.9-6.2 8.5-8 13.5-2.3-1.4-5.1-2.2-8-2.2s-5.7.8-8 2.2c-1.8-5-4.5-9.6-8-13.5 4.7-2.8 10.2-4.4 16-4.4s11.3 1.6 16 4.4zm32 0c-3.5 3.9-6.2 8.5-8 13.5-2.3-1.4-5.1-2.2-8-2.2s-5.7.8-8 2.2c-1.8-5-4.5-9.6-8-13.5 4.7-2.8 10.2-4.4 16-4.4s11.3 1.6 16 4.4zm32 0c-3.5 3.9-6.2 8.5-8 13.5-2.3-1.4-5.1-2.2-8-2.2s-5.7.8-8 2.2c-1.8-5-4.5-9.6-8-13.5 4.7-2.8 10.2-4.4 16-4.4s11.3 1.6 16 4.4zm32.1 0c-3.5 3.9-6.2 8.5-8 13.5-2.3-1.4-5.1-2.2-8-2.2s-5.7.8-8 2.2c-1.8-5-4.5-9.6-8-13.5 4.7-2.8 10.2-4.4 16-4.4s11.3 1.6 16 4.4zm32 0c-3.5 3.9-6.2 8.5-8 13.5-2.3-1.4-5.1-2.2-8-2.2s-5.7.8-8 2.2c-1.8-5-4.5-9.6-8-13.5 4.7-2.8 10.2-4.4 16-4.4s11.3 1.6 16 4.4zm32 0c-3.5 3.9-6.2 8.5-8 13.5-2.3-1.4-5.1-2.2-8-2.2s-5.7.8-8 2.2c-1.8-5-4.5-9.6-8-13.5 4.7-2.8 10.2-4.4 16-4.4s11.3 1.6 16 4.4zm32 0c-3.5 3.9-6.2 8.5-8 13.5-2.3-1.4-5.1-2.2-8-2.2s-5.7.8-8 2.2c-1.8-5-4.5-9.6-8-13.5 4.7-2.8 10.2-4.4 16-4.4s11.3 1.6 16 4.4zm32.1 0c-3.5 3.9-6.2 8.5-8 13.5-2.3-1.4-5.1-2.2-8-2.2s-5.7.8-8 2.2c-1.8-5-4.5-9.6-8-13.5 4.7-2.8 10.2-4.4 16-4.4s11.3 1.6 16 4.4zm32 0c-3.5 3.9-6.2 8.5-8 13.5-2.3-1.4-5.1-2.2-8-2.2s-5.7.8-8 2.2c-1.8-5-4.5-9.6-8-13.5 4.7-2.8 10.2-4.4 16-4.4s11.3 1.6 16 4.4z"/></g></g><g fill="none" stroke="#bc1e46" stroke-width="2"><path d="M1265.1 747.1v-324H752.6V747l512.5.1zm512.5 0v-324h-512.5V747l512.5.1z"/><path d="M752.6 423.4v-648H-272.3v647.7l1024.9.3z"/><path d="M1777.6 423.4v-648h-1025v647.7l1025 .3zM240.2 747.1v-324h-512.5V747l512.5.1z"/><path d="M752.6 747.1v-324H240.2V747l512.4.1zM1521.4 909V747h-256.3v161.9l256.3.1z"/><path d="M1777.6 909V747h-256.2v161.9l256.2.1zm-768.7 0V747H752.6v161.9l256.3.1z"/><path d="M1265.1 909V747h-256.2v161.9l256.2.1zm-768.7 0V747H240.2v161.9l256.2.1zm256.2 0V747H496.4v161.9l256.2.1zm-768.7 0V747h-256.2v161.9l256.2.1z"/><path d="M240.2 909V747H-16.1v161.9l256.3.1zm384.3 80.9v-81H496.4v81h128.1zm128.1 0v-81H624.5v81h128.1z"/><path d="M368.3 989.9v-81H240.2v81h128.1zm128.1 0v-81H368.3v81h128.1zm-384.4 0v-81H-16.1v81H112zm128.2 0v-81H112v81h128.2zm-384.4 0v-81h-128.1v81h128.1z"/><path d="M-16.1 989.9v-81h-128.1v81h128.1zm1665.6 0v-81h-128.1v81h128.1zm128.1 0v-81h-128.1v81h128.1zm-384.4 0v-81h-128.1v81h128.1zm128.2 0v-81h-128.2v81h128.2zm-384.4 0v-81h-128.1v81H1137zm128.1 0v-81H1137v81h128.1zm-384.3 0v-81H752.6v81h128.2zm128.1 0v-81H880.8v81h128.1zm-832.8 40.5v-40.5H112v40.5h64.1zm64.1 0v-40.5h-64.1v40.5h64.1zm-192.2 0v-40.5h-64.1v40.5H48zm64 0v-40.5H48v40.5h64zm-192.1 0v-40.5h-64.1v40.5h64.1zm64 0v-40.5h-64v40.5h64zm-192.2 0v-40.5h-64v40.5h64zm64.1 0v-40.5h-64.1v40.5h64.1zm832.8 0v-40.5h-64.1v40.5h64.1zm64 0v-40.5h-64v40.5h64zm-192.1 0v-40.5h-64.1v40.5h64.1zm64 0v-40.5h-64v40.5h64zm-192.2 0v-40.5h-64v40.5h64z"/><path d="M496.4 1030.4v-40.5h-64.1v40.5h64.1zm-192.2 0v-40.5h-64v40.5h64zm64.1 0v-40.5h-64.1v40.5h64.1zm832.7 0v-40.5h-64v40.5h64zm64.1 0v-40.5H1201v40.5h64.1zm-192.2 0v-40.5h-64v40.5h64zm64.1 0v-40.5h-64.1v40.5h64.1zm-192.2 0v-40.5h-64.1v40.5h64.1zm64.1 0v-40.5h-64.1v40.5h64.1zm-192.2 0v-40.5h-64.1v40.5h64.1z"/><path d="M880.7 1030.4v-40.5h-64v40.5h64zm832.8 0v-40.5h-64v40.5h64zm64.1 0v-40.5h-64.1v40.5h64.1zm-192.2 0v-40.5h-64.1v40.5h64.1zm64.1 0v-40.5h-64.1v40.5h64.1zm-192.2 0v-40.5h-64.1v40.5h64.1zm64 0v-40.5h-64v40.5h64zm-192.1 0v-40.5h-64.1v40.5h64.1zm64 0v-40.5h-64v40.5h64zm-1441.3 20.2v-20.2h-32v20.2h32z"/><path d="M-16.1 1050.6v-20.2h-32v20.2h32zm-96.1 0v-20.2h-32v20.2h32zm32.1 0v-20.2h-32.1v20.2h32.1zm-96.1 0v-20.2h-32.1v20.2h32.1zm32 0v-20.2h-32v20.2h32zm-96.1 0v-20.2h-32v20.2h32zm32 0v-20.2h-32v20.2h32zm416.4 0v-20.2h-32v20.2h32zm32.1 0v-20.2h-32.1v20.2h32.1zm-96.1 0v-20.2H112v20.2h32.1zm32 0v-20.2h-32v20.2h32zm-96.1 0v-20.2H48v20.2h32zm32 0v-20.2H80v20.2h32zm-96 0v-20.2h-32.1v20.2H16zm32 0v-20.2H16v20.2h32zm416.4 0v-20.2h-32.1v20.2h32.1zm32 0v-20.2h-32v20.2h32zm-96.1 0v-20.2h-32v20.2h32z"/><path d="M432.3 1050.6v-20.2h-32v20.2h32zm-96.1 0v-20.2h-32v20.2h32zm32.1 0v-20.2h-32.1v20.2h32.1zm-96.1 0v-20.2h-32v20.2h32zm32 0v-20.2h-32v20.2h32zm416.4 0v-20.2h-32v20.2h32zm32 0v-20.2h-32v20.2h32zm-96.1 0v-20.2h-32v20.2h32zm32.1 0v-20.2h-32.1v20.2h32.1zm-96.1 0v-20.2h-32v20.2h32zm32 0v-20.2h-32v20.2h32zm-96.1 0v-20.2h-32v20.2h32zm32.1 0v-20.2h-32.1v20.2h32.1zm416.3 0v-20.2h-32v20.2h32zm32.1 0v-20.2h-32.1v20.2h32.1zm-96.1 0v-20.2h-32.1v20.2h32.1zm32 0v-20.2h-32v20.2h32zm-96.1 0v-20.2h-32v20.2h32z"/><path d="M880.7 1050.6v-20.2h-32v20.2h32zm-96.1 0v-20.2h-32v20.2h32zm32.1 0v-20.2h-32.1v20.2h32.1zm416.4 0v-20.2H1201v20.2h32.1zm32 0v-20.2h-32v20.2h32zm-96.1 0v-20.2h-32v20.2h32zm32 0v-20.2h-32v20.2h32zm-96.1 0v-20.2h-32v20.2h32zm32.1 0v-20.2h-32.1v20.2h32.1zm-96.1 0v-20.2h-32v20.2h32zm32 0v-20.2h-32v20.2h32zm416.4 0v-20.2h-32v20.2h32zm32 0v-20.2h-32v20.2h32zm-96.1 0v-20.2h-32v20.2h32zm32.1 0v-20.2h-32.1v20.2h32.1zm-96.1 0v-20.2h-32.1v20.2h32.1zm32 0v-20.2h-32v20.2h32zm-96.1 0v-20.2h-32v20.2h32zm32 0v-20.2h-32v20.2h32zm416.4 0v-20.2h-32v20.2h32zm32.1 0v-20.2h-32.1v20.2h32.1zm-96.1 0v-20.2h-32.1v20.2h32.1zm32 0v-20.2h-32v20.2h32zm-96.1 0v-20.2h-32v20.2h32zm32 0v-20.2h-32v20.2h32zm-96 0v-20.2h-32.1v20.2h32.1zm32 0v-20.2h-32v20.2h32z"/></g></svg>